<svg id="Layer_5" enable-background="new 0 0 64 64" height="512" viewBox="0 0 64 64" width="512" xmlns="http://www.w3.org/2000/svg"><g><g><g><path d="m52 29c0 .65-.21 1.28-.6 1.8l-5.4 7.2h-4-4l-5.4-7.2c-.39-.52-.6-1.15-.6-1.8 0-.83.34-1.58.88-2.12s1.29-.88 2.12-.88c1.75 0 1.75 2 3.5 2s1.75-2 3.49-2c1.76 0 1.76 2 3.51 2 .88 0 1.31-.5 1.75-1s.87-1 1.75-1c.83 0 1.58.34 2.12.88s.88 1.29.88 2.12z" fill="#a0d468"/></g><g><path d="m52.95 45.48c-.68-1.5-1.67-2.86-2.94-3.97l-4.01-3.51h-4-4l-4.01 3.51c-2.45 2.15-3.9 5.22-3.98 8.49-.01.1-.01.21-.01.31 0 1.29.21 2.53.6 3.69.58 1.74 1.56 3.3 2.83 4.57 2.11 2.12 5.03 3.43 8.26 3.43h.31.31c6.45 0 11.69-5.24 11.69-11.69 0-1.69-.36-3.33-1.05-4.83z" fill="#b4dd7f"/></g><g><path d="m56 5c0-1.1.9-2 2-2h4v18h-4c-1.1 0-2-.9-2-2v-1-12z" fill="#ff826e"/></g><g><path d="m15 40 3 4 1.87-4.73c.81.45 1.55 1.01 2.2 1.66 1.81 1.81 2.93 4.31 2.93 7.07v2h-15v-3l-5 2.5v-1.5c0-3.75 2.07-7.03 5.13-8.73l1.87 4.73z" fill="#ff826e"/></g><g><path d="m5 49.5 5-2.5v3h15 5 .01c-.01.1-.01.21-.01.31 0 1.29.21 2.53.6 3.69h-20.6v3l-7.11-3.55c-.54-.28-.89-.84-.89-1.45s.35-1.17.89-1.45z" fill="#ffeaa7"/></g><g><path d="m15 38 4.87 1.27-1.87 4.73-3-4-3 4-1.87-4.73c1.44-.81 3.1-1.27 4.87-1.27z" fill="#fc6e51"/></g><g><path d="m17.5 10c5.8 0 10.5 4.7 10.5 10.5 0 1.5-.32 2.97-.93 4.33-.53-.51-1.26-.83-2.07-.83h-1v-2c-2.35 0-4.4-1.6-4.97-3.88l-.03-.12-13 4v2h-1c-.81 0-1.54.32-2.07.83-.61-1.35-.93-2.83-.93-4.33 0-2.9 1.18-5.52 3.08-7.42s4.52-3.08 7.42-3.08z" fill="#656d78"/></g><g><path d="m42 6c-.83 0-1.58-.34-2.12-.88s-.88-1.29-.88-2.12c0-.55.45-1 1-1h8.9c1.36 0 2.68.46 3.74 1.31l3.36 2.69v12l-3.36 2.69c-1.06.85-2.38 1.31-3.74 1.31h-14.9c-1.1 0-2-.9-2-2 0-.55.22-1.05.59-1.41.36-.37.86-.59 1.41-.59h-2c-.55 0-1.05-.22-1.41-.59-.37-.36-.59-.86-.59-1.41 0-1.1.9-2 2-2h-2c-.55 0-1.05-.22-1.41-.59-.37-.36-.59-.86-.59-1.41 0-1.1.9-2 2-2h2c-.55 0-1.05-.22-1.41-.59-.37-.36-.59-.86-.59-1.41 0-1.1.9-2 2-2z" fill="#f0d0b4"/></g><g><path d="m27.07 24.83c.57.55.93 1.32.93 2.17 0 .83-.34 1.58-.88 2.12s-1.29.88-2.12.88h-1v-6h1c.81 0 1.54.32 2.07.83z" fill="#f0d0b4"/></g><g><path d="m6 30v-6-2l13-4 .03.12c.57 2.28 2.62 3.88 4.97 3.88v2 6c0 4.42-3.58 8-8 8h-1-1c-4.42 0-8-3.58-8-8z" fill="#f0d0b4"/></g><g><path d="m6 24v6h-1c-.83 0-1.58-.34-2.12-.88s-.88-1.29-.88-2.12c0-.85.36-1.62.93-2.17.53-.51 1.26-.83 2.07-.83z" fill="#f0d0b4"/></g><g><path d="m11 30h8c0 2.21-1.79 4-4 4-1.1 0-2.1-.45-2.83-1.17-.72-.73-1.17-1.73-1.17-2.83z" fill="#ff826e"/></g></g><g><path d="m41 45h2c1.103 0 2 .897 2 2h2c0-2.206-1.794-4-4-4v-2h-2v2c-2.206 0-4 1.794-4 4s1.794 4 4 4h2c1.103 0 2 .897 2 2s-.897 2-2 2h-2c-1.103 0-2-.897-2-2v-1h-2v1c0 2.206 1.794 4 4 4v2h2v-2c2.206 0 4-1.794 4-4s-1.794-4-4-4h-2c-1.103 0-2-.897-2-2s.897-2 2-2z"/><path d="m50.665 40.753-3.309-2.895 4.845-6.459c.515-.688.799-1.54.799-2.399 0-2.206-1.794-4-4-4-1.33 0-2.036.807-2.504 1.341-.436.498-.61.659-.999.659-.39 0-.563-.161-1-.659-.468-.534-1.174-1.341-2.503-1.341-1.328 0-2.034.808-2.502 1.342-.434.497-.608.658-.996.658s-.561-.161-.995-.658c-.467-.534-1.173-1.342-2.501-1.342-2.206 0-4 1.794-4 4 0 .859.284 1.711.8 2.4l4.844 6.458-3.309 2.895c-2.425 2.122-3.937 5.074-4.265 8.247h-3.07v-1c0-4.331-2.523-8.075-6.17-9.868 2.763-1.307 4.76-3.971 5.111-7.132h.06c2.206 0 4-1.794 4-4 0-.886-.299-1.698-.788-2.361.512-1.323.787-2.71.787-4.139 0-6.341-5.159-11.5-11.5-11.5h-5c-6.341 0-11.5 5.159-11.5 11.5 0 1.43.275 2.817.788 4.14-.489.664-.787 1.475-.787 2.36 0 2.206 1.794 4 4 4h.058c.351 3.161 2.348 5.826 5.111 7.132-3.647 1.793-6.17 5.537-6.17 9.868v.882l-1.553.776c-.892.446-1.447 1.344-1.447 2.342s.555 1.896 1.447 2.342l8.553 4.276v-3.618h18.91c1.871 4.68 6.443 8 11.783 8h.613c7 0 12.694-5.694 12.694-12.694 0-3.66-1.58-7.142-4.335-9.553zm-17.665-11.753c0-1.103.897-2 2-2 .388 0 .561.161.995.658.467.534 1.173 1.342 2.501 1.342s2.034-.808 2.502-1.342c.435-.497.608-.658.996-.658.389 0 .563.161.999.659.468.534 1.174 1.341 2.504 1.341 1.329 0 2.035-.807 2.503-1.341.437-.498.61-.659 1-.659 1.103 0 2 .897 2 2 0 .43-.142.856-.399 1.2l-5.101 6.8h-7l-5.1-6.8c-.258-.344-.4-.77-.4-1.2zm-20.727 12.968-.872-2.212c.952-.417 1.99-.667 3.079-.73zm3.247-2.942c1.089.063 2.127.312 3.079.73l-.872 2.212zm9.481-10.026v-4c1.103 0 2 .897 2 2s-.897 2-2 2zm-12.501-18h5c5.238 0 9.5 4.262 9.5 9.5 0 .966-.151 1.909-.435 2.82-.48-.206-1.009-.32-1.564-.32v-2h-1c-1.896 0-3.541-1.284-4-3.125l-.289-1.14-14.712 4.526v1.739c-.555 0-1.084.115-1.565.32-.284-.91-.435-1.853-.435-2.82 0-5.238 4.262-9.5 9.5-9.5zm-9.499 16c0-1.103.897-1.999 1.999-2v4c-1.102-.001-1.999-.897-1.999-2zm10.999 10c-3.859 0-7-3.14-7-7v-7.261l11.354-3.493c.813 1.944 2.57 3.332 4.647 3.673l-.001 7.081c0 3.86-3.141 7-7 7zm-4.346 3.777 2.073 5.255 2.273-3.032v4h2v-4l2.273 3.032 2.073-5.255c2.212 1.641 3.654 4.264 3.654 7.223v1h-13v-3.618l-4.994 2.497c.039-2.91 1.467-5.483 3.648-7.102zm-.654 12.223v2.382l-5.658-2.829c-.211-.106-.342-.317-.342-.553s.131-.447.342-.553l5.658-2.829v2.382h20.035c.037.682.118 1.351.259 2zm33.307 8h-.613c-5.897 0-10.694-4.797-10.694-10.694 0-3.083 1.331-6.017 3.651-8.048l3.725-3.258h7.248l3.725 3.258c2.32 2.031 3.651 4.965 3.651 8.048 0 5.897-4.797 10.694-10.693 10.694z"/><path d="m58 2c-1.322 0-2.433.865-2.832 2.053l-1.899-1.519c-1.237-.989-2.79-1.534-4.373-1.534h-8.896c-1.103 0-2 .897-2 2 0 .732.212 1.409.556 2h-6.556c-1.654 0-3 1.346-3 3 0 .395.081.77.22 1.116-1.275.345-2.22 1.501-2.22 2.884s.945 2.539 2.22 2.884c-.139.346-.22.721-.22 1.116 0 1.383.945 2.539 2.22 2.884-.139.346-.22.721-.22 1.116 0 1.654 1.346 3 3 3h14.896c1.584 0 3.137-.545 4.373-1.534l1.899-1.519c.399 1.188 1.51 2.053 2.832 2.053h5v-20zm-5.981 17.904c-.883.707-1.993 1.096-3.123 1.096h-14.896c-.552 0-1-.449-1-1s.448-1 1-1h9v-2h-9-2c-.552 0-1-.449-1-1s.448-1 1-1h11v-2h-11-2c-.552 0-1-.449-1-1s.448-1 1-1h2 11v-2h-11c-.552 0-1-.449-1-1s.448-1 1-1h10 3.586l.949.95c1.323 1.322 3.081 2.05 4.95 2.05h1.515v-2h-1.515c-1.335 0-2.591-.52-3.536-1.464l-1.535-1.536h-.414-4c-1.103 0-2-.897-2-2h8.896c1.131 0 2.24.389 3.123 1.096l2.981 2.385v11.038zm8.981.096h-3c-.552 0-1-.449-1-1v-14c0-.551.448-1 1-1h3z"/><path d="m19.001 26c.552 0 1 .449 1 1h2c0-1.654-1.346-3-3-3s-3 1.346-3 3h2c0-.551.448-1 1-1z"/><path d="m11.001 26c.552 0 1 .449 1 1h2c0-1.654-1.346-3-3-3s-3 1.346-3 3h2c0-.551.448-1 1-1z"/><path d="m20 30v-1h-10v1c0 2.757 2.243 5 5 5s5-2.243 5-5zm-5 3c-1.304 0-2.416-.836-2.829-2h5.658c-.413 1.164-1.525 2-2.829 2z"/></g></g></svg>