<svg height="512" viewBox="0 0 64 64" width="512" xmlns="http://www.w3.org/2000/svg"><g id="creditor"><path d="m58 38v4c0 4.63-3.52 9-8 9h-10c-4.48 0-8-4.37-8-9v-4a15.252 15.252 0 0 1 .32-3c.98-4.82 4.05-10.24 7.68-13h10c4.41 3.36 8 10.63 8 16z" fill="#ffe477"/><path d="m58 38v4c0 4.63-3.52 9-8 9h-10a7.811 7.811 0 0 1 -6.56-3.98 7.076 7.076 0 0 0 3.56.98h10c4.48 0 8-4.37 8-9v-4c0-4.09-2.08-9.27-5.02-13h.02c4.41 3.36 8 10.63 8 16z" fill="#ebbf00"/><path d="m53 9-2.88 9v.01a.487.487 0 0 0 -.12-.01h-10a.487.487 0 0 0 -.12.01v-.01l-1.88-7 .42.06 6.58.94z" fill="#ffe477"/><path d="m53 9-2.88 9v.01a.487.487 0 0 0 -.12-.01h-2.88l2.47-7.72z" fill="#ebbf00"/><path d="m47.12 18v.01a.487.487 0 0 0 -.12-.01z" fill="#ebbf00"/><path d="m50.12 18.01a2 2 0 0 1 1.88 1.99 2.015 2.015 0 0 1 -2 2h-10a2.006 2.006 0 0 1 -2-2 1.955 1.955 0 0 1 .59-1.41 1.912 1.912 0 0 1 1.29-.58.487.487 0 0 1 .12-.01h10a.487.487 0 0 1 .12.01z" fill="#ff7956"/><path d="m52 20a2.015 2.015 0 0 1 -2 2h-3a2.015 2.015 0 0 0 2-2 2 2 0 0 0 -1.88-1.99.487.487 0 0 0 -.12-.01h3a.487.487 0 0 1 .12.01 2 2 0 0 1 1.88 1.99z" fill="#ff5023"/><path d="m52 55a3 3 0 0 1 0 6h-29l-10-8v-14l9-4 10 5.33 5 2.67v2a2.006 2.006 0 0 1 -2 2h-13l10 8z" fill="#ffdaaa"/><path d="m13 53v2h-4v-2-14-2h4v2z" fill="#e0e0e2"/><path d="m9 39v14l-6 2v-18z" fill="#00d7df"/><path d="m55 58a3 3 0 0 1 -3 3h-29l-10-8v-3l10 8h29a2.993 2.993 0 0 0 2.12-.88 3.3 3.3 0 0 0 .48-.62 3.026 3.026 0 0 1 .4 1.5z" fill="#ffc477"/><path d="m9 52h4v3h-4z" fill="#898890"/><path d="m9 50v3l-6 2v-3z" fill="#009698"/><circle cx="24" cy="13" fill="#ffe477" r="10"/><path d="m34 13a10 10 0 0 1 -18.41 5.41 10 10 0 0 0 13.82-13.82 9.992 9.992 0 0 1 4.59 8.41z" fill="#ebbf00"/><path d="m24 24a11 11 0 1 0 -11-11 11.013 11.013 0 0 0 11 11zm0-20a9 9 0 1 1 -9 9 9.01 9.01 0 0 1 9-9z"/><path d="m23 20h2v-2a2 2 0 0 0 2-2v-2a2 2 0 0 0 -2-2h-2v-2h4v-2h-2v-2h-2v2a2 2 0 0 0 -2 2v2a2 2 0 0 0 2 2h2v2h-4v2h2z"/><path d="m62 4h-2v-2h-2v2h-2v2h2v2h2v-2h2z"/><path d="m58 13h-2v2h-2v2h2v2h2v-2h2v-2h-2z"/><path d="m43 9h2v-2h2v-2h-2v-2h-2v2h-2v2h2z"/><path d="m40 52h10c4.88 0 9-4.58 9-10v-4c0-5.19-3.09-11.85-7.11-15.69a2.969 2.969 0 0 0 -.51-4.96l2.57-8.05a.973.973 0 0 0 -.26-1.02 1 1 0 0 0 -1.04-.22l-7.76 2.91-6.75-.96a.966.966 0 0 0 -.89.33 1.026 1.026 0 0 0 -.22.92l1.63 6.07a2.969 2.969 0 0 0 -.55 4.98c-4.02 3.84-7.11 10.5-7.11 15.69v.67l-8.53-4.55a.974.974 0 0 0 -.88-.03l-7.59 3.37v-.46a1 1 0 0 0 -1-1h-4a1 1 0 0 0 -1 1v.61l-4.68-1.56a1 1 0 0 0 -.9.14.983.983 0 0 0 -.42.81v18a.983.983 0 0 0 .42.81.939.939 0 0 0 .58.19 1.185 1.185 0 0 0 .32-.05l4.68-1.56v.61a1 1 0 0 0 1 1h4a1 1 0 0 0 .99-.93l8.39 6.71a.977.977 0 0 0 .62.22h29a4 4 0 0 0 0-8h-19.65l-7.5-6h8.05a8.72 8.72 0 0 0 7.1 4zm-32 .28-4 1.33v-15.22l4 1.33zm4 1.72h-2v-16h2zm32.86-41.01a1.018 1.018 0 0 0 .49-.05l6.07-2.28-2.03 6.34h-8.74l-1.29-4.8zm-4.86 6.01h10a1 1 0 0 1 0 2h-10a1 1 0 0 1 0-2zm-7 19c0-5 3.35-11.77 7.36-15h9.28c4.01 3.23 7.36 10 7.36 15v4c0 4.26-3.27 8-7 8h-10a6.455 6.455 0 0 1 -4.58-2.04 3 3 0 0 0 2.58-2.96v-2a.984.984 0 0 0 -.53-.88l-4.47-2.39zm-11.62 9.78 10 8a.977.977 0 0 0 .62.22h20a2 2 0 0 1 0 4h-28.65l-9.35-7.48v-12.87l7.96-3.54 14.04 7.49v1.4a1 1 0 0 1 -1 1h-13a1 1 0 0 0 -.94.67.983.983 0 0 0 .32 1.11z"/><path d="m46 35h-2a3 3 0 0 1 0-6h6v-2h-4v-2h-2v2a5 5 0 0 0 0 10h2a3 3 0 0 1 0 6h-6v2h4v2h2v-2a5 5 0 0 0 0-10z"/></g></svg>