<?xml version="1.0"?>
<svg xmlns="http://www.w3.org/2000/svg" xmlns:xlink="http://www.w3.org/1999/xlink" xmlns:svgjs="http://svgjs.com/svgjs" version="1.1" width="512" height="512" x="0" y="0" viewBox="0 0 64 64" style="enable-background:new 0 0 512 512" xml:space="preserve" class=""><g><g xmlns="http://www.w3.org/2000/svg" id="creditor"><path d="m24 24a11 11 0 1 0 -11-11 11.013 11.013 0 0 0 11 11zm0-20a9 9 0 1 1 -9 9 9.01 9.01 0 0 1 9-9z" fill="#0084f9" data-original="#000000" style="" class=""/><path d="m23 20h2v-2a2 2 0 0 0 2-2v-2a2 2 0 0 0 -2-2h-2v-2h4v-2h-2v-2h-2v2a2 2 0 0 0 -2 2v2a2 2 0 0 0 2 2h2v2h-4v2h2z" fill="#0084f9" data-original="#000000" style="" class=""/><path d="m62 4h-2v-2h-2v2h-2v2h2v2h2v-2h2z" fill="#0084f9" data-original="#000000" style="" class=""/><path d="m58 13h-2v2h-2v2h2v2h2v-2h2v-2h-2z" fill="#0084f9" data-original="#000000" style="" class=""/><path d="m43 9h2v-2h2v-2h-2v-2h-2v2h-2v2h2z" fill="#0084f9" data-original="#000000" style="" class=""/><path d="m40 52h10c4.88 0 9-4.58 9-10v-4c0-5.19-3.09-11.85-7.11-15.69a2.969 2.969 0 0 0 -.51-4.96l2.57-8.05a.973.973 0 0 0 -.26-1.02 1 1 0 0 0 -1.04-.22l-7.76 2.91-6.75-.96a.966.966 0 0 0 -.89.33 1.026 1.026 0 0 0 -.22.92l1.63 6.07a2.969 2.969 0 0 0 -.55 4.98c-4.02 3.84-7.11 10.5-7.11 15.69v.67l-8.53-4.55a.974.974 0 0 0 -.88-.03l-7.59 3.37v-.46a1 1 0 0 0 -1-1h-4a1 1 0 0 0 -1 1v.61l-4.68-1.56a1 1 0 0 0 -.9.14.983.983 0 0 0 -.42.81v18a.983.983 0 0 0 .42.81.939.939 0 0 0 .58.19 1.185 1.185 0 0 0 .32-.05l4.68-1.56v.61a1 1 0 0 0 1 1h4a1 1 0 0 0 .99-.93l8.39 6.71a.977.977 0 0 0 .62.22h29a4 4 0 0 0 0-8h-19.65l-7.5-6h8.05a8.72 8.72 0 0 0 7.1 4zm-32 .28-4 1.33v-15.22l4 1.33zm4 1.72h-2v-16h2zm32.86-41.01a1.018 1.018 0 0 0 .49-.05l6.07-2.28-2.03 6.34h-8.74l-1.29-4.8zm-4.86 6.01h10a1 1 0 0 1 0 2h-10a1 1 0 0 1 0-2zm-7 19c0-5 3.35-11.77 7.36-15h9.28c4.01 3.23 7.36 10 7.36 15v4c0 4.26-3.27 8-7 8h-10a6.455 6.455 0 0 1 -4.58-2.04 3 3 0 0 0 2.58-2.96v-2a.984.984 0 0 0 -.53-.88l-4.47-2.39zm-11.62 9.78 10 8a.977.977 0 0 0 .62.22h20a2 2 0 0 1 0 4h-28.65l-9.35-7.48v-12.87l7.96-3.54 14.04 7.49v1.4a1 1 0 0 1 -1 1h-13a1 1 0 0 0 -.94.67.983.983 0 0 0 .32 1.11z" fill="#0084f9" data-original="#000000" style="" class=""/><path d="m46 35h-2a3 3 0 0 1 0-6h6v-2h-4v-2h-2v2a5 5 0 0 0 0 10h2a3 3 0 0 1 0 6h-6v2h4v2h2v-2a5 5 0 0 0 0-10z" fill="#0084f9" data-original="#000000" style="" class=""/></g></g></svg>
