<svg id="Layer_5" enable-background="new 0 0 64 64" height="512" viewBox="0 0 64 64" width="512" xmlns="http://www.w3.org/2000/svg"><g><g><g><path d="m28 56c1.1 0 2 .9 2 2s-.45 2.1-1.17 2.83c-.73.72-1.73 1.17-2.83 1.17h-20c-2.21 0-4-1.79-4-4 0-.55.22-1.05.59-1.41.36-.37.86-.59 1.41-.59h2 20z" fill="#aab2bd"/></g><g><path d="m60 56c1.1 0 2 .9 2 2s-.45 2.1-1.17 2.83c-.73.72-1.73 1.17-2.83 1.17h-20c-2.21 0-4-1.79-4-4 0-.55.22-1.05.59-1.41.36-.37.86-.59 1.41-.59h2 20z" fill="#aab2bd"/></g><g><path d="m28 40v14c0 1.1-.9 2-2 2h-20c-1.1 0-2-.9-2-2v-14c0-1.1.9-2 2-2h6v4h-4v10h4 8 4v-10h-4v-4h6c1.1 0 2 .9 2 2z" fill="#ccd1d9"/></g><g><path d="m60 40v14c0 1.1-.9 2-2 2h-20c-1.1 0-2-.9-2-2v-14c0-1.1.9-2 2-2h6v4h-4v10h4 8 4v-10h-4v-4h6c1.1 0 2 .9 2 2z" fill="#ccd1d9"/></g><g><path d="m8 42h4v10h-4z" fill="#69d6f4"/></g><g><path d="m20 42h4v10h-4z" fill="#69d6f4"/></g><g><path d="m52 42h4v10h-4z" fill="#69d6f4"/></g><g><path d="m40 42h4v10h-4z" fill="#69d6f4"/></g><g><path d="m20 42v10h-8v-10-4-6h8v6z" fill="#ff826e"/></g><g><path d="m52 42v10h-8v-10-4-6h8v6z" fill="#ff826e"/></g><g><path d="m22 12c0 5.52 4.48 10 10 10h-8-12v-3c0-.83-.34-1.58-.88-2.12s-1.29-.88-2.12-.88c-.55 0-1 .45-1 1v-15h24c-5.52 0-10 4.48-10 10z" fill="#b4dd7f"/></g><g><path d="m56 2v15c0-.55-.45-1-1-1-.83 0-1.58.34-2.12.88s-.88 1.29-.88 2.12v3h-12-8c5.52 0 10-4.48 10-10s-4.48-10-10-10z" fill="#b4dd7f"/></g><g><path d="m20 32h-8l-2.69-3.36c-.85-1.06-1.31-2.38-1.31-3.74v-6.9-1c0-.55.45-1 1-1 .83 0 1.58.34 2.12.88s.88 1.29.88 2.12v3h12v2.9c0 1.36-.46 2.68-1.31 3.74z" fill="#f0d0b4"/></g><g><path d="m52 32h-8l-2.69-3.36c-.85-1.06-1.31-2.38-1.31-3.74v-2.9h12v-3c0-.83.34-1.58.88-2.12s1.29-.88 2.12-.88c.55 0 1 .45 1 1v1 6.9c0 1.36-.46 2.68-1.31 3.74z" fill="#f0d0b4"/></g><g><circle cx="32" cy="12" fill="#fcd770" r="10"/></g></g><g><path d="m60.78 55.116c.139-.346.22-.721.22-1.116v-14c0-1.654-1.346-3-3-3h-5v-4.65l2.466-3.082c.989-1.236 1.534-2.789 1.534-4.372v-6.896-1-16h-50v16 1 6.896c0 1.583.545 3.136 1.534 4.373l2.466 3.081v4.65h-5c-1.654 0-3 1.346-3 3v14c0 .395.081.77.22 1.116-1.275.345-2.22 1.501-2.22 2.884 0 2.757 2.243 5 5 5h20c2.757 0 5-2.243 5-5 0-1.383-.945-2.539-2.22-2.884.139-.346.22-.721.22-1.116v-14c0-1.654-1.346-3-3-3h-5v-4.65l2.466-3.082c.989-1.236 1.534-2.789 1.534-4.372v-1.896h14v1.896c0 1.583.545 3.136 1.534 4.373l2.466 3.081v4.65h-5c-1.654 0-3 1.346-3 3v14c0 .395.081.77.22 1.116-1.275.345-2.22 1.501-2.22 2.884 0 2.757 2.243 5 5 5h20c2.757 0 5-2.243 5-5 0-1.383-.945-2.539-2.22-2.884zm-17.78-4.116h-2v-8h2zm8 0h-6v-18h6zm2-8h2v8h-2zm-32 0h2v8h-2zm-2 8h-6v-18h6zm-10 0v-8h2v8zm17 10h-20c-1.654 0-3-1.346-3-3 0-.551.449-1 1-1h2 20 2c.551 0 1 .449 1 1 0 1.654-1.346 3-3 3zm0-22c.551 0 1 .449 1 1v14c0 .551-.449 1-1 1h-20c-.551 0-1-.449-1-1v-14c0-.551.449-1 1-1h5v2h-4v12h18v-12h-4v-2zm-3-14.104c0 1.131-.389 2.24-1.096 3.124l-2.384 2.98h-7.04l-2.385-2.981c-.706-.884-1.095-1.993-1.095-3.123v-6.896-1c1.103 0 2 .897 2 2v3.414l1.536 1.536c.944.944 1.464 2.2 1.464 3.535v1.515h2v-1.515c0-1.659-.576-3.229-1.629-4.485h8.629zm-10-3.896v-2c0-2.206-1.794-4-4-4v-12h16.695c-2.834 1.992-4.695 5.28-4.695 9s1.861 7.008 4.695 9zm19-18c4.962 0 9 4.038 9 9s-4.038 9-9 9-9-4.038-9-9 4.038-9 9-9zm11 9c0-3.72-1.861-7.008-4.695-9h16.695v12c-2.206 0-4 1.794-4 4v2h-12.695c2.834-1.992 4.695-5.28 4.695-9zm-2 12.896v-1.896h8.629c-1.053 1.257-1.629 2.826-1.629 4.485v1.515h2v-1.515c0-1.335.52-2.591 1.464-3.536l1.536-1.535v-3.414c0-1.103.897-2 2-2v1 6.896c0 1.131-.389 2.24-1.096 3.124l-2.384 2.98h-7.04l-2.385-2.981c-.706-.884-1.095-1.993-1.095-3.123zm-4 15.104c0-.551.449-1 1-1h5v2h-4v12h18v-12h-4v-2h5c.551 0 1 .449 1 1v14c0 .551-.449 1-1 1h-20c-.551 0-1-.449-1-1zm21 21h-20c-1.654 0-3-1.346-3-3 0-.551.449-1 1-1h2 20 2c.551 0 1 .449 1 1 0 1.654-1.346 3-3 3z"/><path d="m32 15c-.551 0-1-.449-1-1h-2c0 1.302.839 2.402 2 2.816v2.184h2v-2.184c1.161-.414 2-1.514 2-2.816 0-1.654-1.346-3-3-3-.551 0-1-.449-1-1s.449-1 1-1 1 .449 1 1h2c0-1.302-.839-2.402-2-2.816v-2.184h-2v2.184c-1.161.414-2 1.514-2 2.816 0 1.654 1.346 3 3 3 .551 0 1 .449 1 1s-.449 1-1 1z"/></g></g></svg>